<?xml version="1.0" standalone="no"?>
<!DOCTYPE svg PUBLIC "-//W3C//DTD SVG 20010904//EN"
 "http://www.w3.org/TR/2001/REC-SVG-20010904/DTD/svg10.dtd">
<svg version="1.0" xmlns="http://www.w3.org/2000/svg"
 width="654.000000pt" height="654.000000pt" viewBox="0 0 654.000000 654.000000"
 preserveAspectRatio="xMidYMid meet">
<metadata>
Created by potrace 1.14, written by Peter Selinger 2001-2017
</metadata>
<g transform="translate(0.000000,654.000000) scale(0.100000,-0.100000)"
fill="#000000" stroke="none">
<path d="M560 5434 c-300 -443 -549 -814 -553 -823 -8 -17 144 -341 908 -1941
218 -456 961 -2018 1070 -2248 32 -67 63 -121 68 -119 6 2 215 307 466 678
251 372 493 731 539 797 l83 122 1209 0 c1311 0 1270 -2 1441 55 167 56 310
147 440 282 557 576 319 1539 -445 1799 -147 50 -195 54 -692 54 -255 0 -464
2 -464 5 0 5 192 291 808 1200 168 248 375 552 459 678 110 162 150 229 140
232 -7 3 -560 4 -1228 2 -1190 -3 -1216 -3 -1304 -24 -278 -64 -497 -207 -663
-432 -235 -316 -277 -756 -107 -1109 149 -309 392 -510 732 -604 77 -21 94
-22 1098 -28 891 -6 1028 -9 1085 -23 206 -51 362 -137 501 -276 129 -129 227
-301 271 -477 32 -124 32 -350 1 -474 -48 -192 -135 -344 -272 -480 -168 -167
-361 -262 -591 -289 -68 -9 -428 -11 -1258 -9 l-1163 3 -273 575 c-150 316
-410 863 -578 1215 -870 1830 -1173 2465 -1178 2464 -3 0 -250 -362 -550 -805z"/>
</g>
</svg>
