<?xml version="1.0" standalone="no"?>
<!DOCTYPE svg PUBLIC "-//W3C//DTD SVG 20010904//EN"
 "http://www.w3.org/TR/2001/REC-SVG-20010904/DTD/svg10.dtd">
<svg version="1.0" xmlns="http://www.w3.org/2000/svg"
 width="518.000000pt" height="518.000000pt" viewBox="0 0 518.000000 518.000000"
 preserveAspectRatio="xMidYMid meet">
<metadata>
Created by potrace 1.14, written by Peter Selinger 2001-2017
</metadata>
<g transform="translate(0.000000,518.000000) scale(0.100000,-0.100000)"
fill="#000000" stroke="none">
<path d="M806 4822 c-4 -3 -181 -7 -394 -8 -213 -1 -390 -2 -393 -3 -3 0 19
-52 49 -113 31 -62 55 -116 54 -120 -1 -5 2 -8 8 -8 6 0 9 -3 8 -7 -1 -5 28
-71 66 -148 37 -77 69 -144 71 -150 1 -5 28 -64 60 -130 33 -66 60 -122 60
-125 1 -3 24 -50 50 -105 27 -55 49 -102 50 -105 1 -3 31 -67 68 -143 37 -76
67 -140 67 -142 0 -2 31 -68 69 -147 38 -79 87 -181 109 -228 64 -135 135
-284 205 -430 115 -240 121 -255 119 -262 -1 -5 2 -8 8 -8 5 0 10 -4 10 -10 0
-10 101 -222 110 -230 3 -3 21 -39 40 -80 19 -41 39 -78 44 -81 5 -4 6 -11 2
-17 -3 -6 -3 -12 1 -14 5 -1 24 -37 43 -78 19 -41 39 -78 43 -81 5 -3 8 -9 7
-13 -1 -7 21 -54 125 -271 34 -71 65 -140 69 -152 4 -13 12 -23 17 -23 5 0 8
-3 7 -7 -1 -5 10 -33 24 -63 30 -65 123 -259 164 -345 16 -33 27 -63 26 -67
-1 -5 3 -8 8 -8 6 0 10 -4 10 -10 0 -9 93 -210 111 -240 5 -8 12 -22 15 -30 4
-8 31 -66 60 -128 30 -63 54 -118 54 -123 0 -19 21 -8 32 16 6 14 15 25 19 25
4 0 15 15 24 34 9 18 25 43 35 54 11 12 20 25 20 30 0 4 8 17 18 28 22 26 62
82 62 88 0 6 62 99 71 106 3 3 18 25 33 49 15 24 50 74 77 112 27 38 46 69 41
69 -4 0 -2 4 4 8 6 4 30 36 54 72 24 36 47 67 52 68 4 2 8 8 8 12 0 8 233 355
277 414 l16 22 691 -1 c380 -1 695 1 700 4 5 2 21 6 35 7 33 4 70 11 99 18 12
3 30 8 40 10 53 12 213 90 247 121 7 6 24 19 39 30 34 25 116 103 116 111 0 3
12 19 28 34 42 45 53 60 46 60 -4 0 2 10 14 23 12 13 19 27 15 30 -3 4 -2 7 4
7 6 0 13 8 16 18 3 9 19 50 36 90 17 40 33 94 37 120 3 26 10 49 14 52 11 7 4
280 -8 318 -6 18 -10 33 -10 35 5 23 -96 257 -111 257 -3 0 -12 14 -19 30 -8
17 -48 65 -90 108 -107 108 -215 176 -352 224 -30 10 -56 18 -57 18 -2 0 -4 0
-5 1 -56 17 -153 22 -443 24 -233 1 -332 5 -365 15 -25 8 -47 14 -50 14 -3 1
-26 10 -50 21 -128 56 -235 152 -300 269 -24 44 -58 130 -63 161 -1 11 -5 25
-8 30 -3 6 -5 29 -5 53 1 23 -3 42 -7 42 -5 0 -5 5 -1 12 4 6 8 35 8 65 0 29
4 53 7 53 4 0 6 8 4 18 -1 9 2 25 7 35 5 10 11 28 14 40 3 20 53 127 64 137 3
3 17 21 31 40 41 54 77 90 90 90 7 0 9 3 6 6 -8 9 127 94 148 94 8 0 15 5 15
10 0 6 3 9 8 9 4 -1 9 0 12 1 7 2 31 8 50 12 8 2 21 7 28 11 7 5 12 3 12 -3 0
-7 6 -8 18 -1 11 6 24 6 32 1 9 -5 20 -4 28 2 10 9 16 8 23 -3 8 -12 10 -12
19 1 9 13 11 13 20 0 9 -13 10 -13 10 0 0 9 3 11 8 5 4 -5 16 -10 27 -10 11 0
23 5 27 10 5 6 8 5 8 -3 0 -10 5 -10 20 -2 15 8 20 8 20 -2 0 -9 3 -9 10 2 9
13 10 13 10 0 0 -13 1 -13 10 0 9 13 10 13 10 0 0 -13 1 -13 10 0 5 8 10 10
10 4 0 -13 42 -13 52 1 5 6 8 5 8 -3 0 -10 5 -10 20 -2 15 8 20 8 20 -2 0 -9
3 -9 10 2 9 13 10 13 10 0 0 -13 1 -13 10 0 9 13 10 13 10 0 0 -13 1 -13 10 0
5 8 10 10 10 4 0 -13 42 -13 52 1 5 6 8 5 8 -3 0 -10 5 -10 20 -2 15 8 20 8
20 -2 0 -9 3 -9 10 2 9 13 10 13 10 0 0 -13 1 -13 10 0 9 13 10 13 10 0 0 -13
1 -13 10 0 5 8 10 10 10 4 0 -13 42 -13 52 1 5 6 8 5 8 -3 0 -10 5 -10 20 -2
15 8 20 8 20 -2 0 -9 3 -9 10 2 5 8 10 10 10 3 0 -12 17 -12 38 0 7 5 12 3 12
-4 0 -8 4 -8 15 1 12 10 15 10 15 0 0 -10 3 -10 15 0 8 7 15 8 15 3 0 -12 30
-10 50 2 16 10 -5 -25 -101 -167 -38 -57 -73 -110 -79 -118 -47 -72 -110 -167
-117 -175 -4 -5 -37 -55 -73 -110 -36 -55 -67 -102 -70 -105 -3 -3 -25 -36
-50 -74 -24 -38 -50 -75 -58 -82 -7 -8 -10 -14 -6 -14 4 0 -1 -10 -12 -22 -39
-45 -65 -89 -59 -98 7 -12 325 -14 340 -2 6 4 24 27 40 52 17 25 33 47 38 48
4 2 7 8 7 13 0 4 39 68 88 140 48 72 92 138 97 147 6 9 34 50 63 91 28 42 52
81 52 87 0 7 7 14 15 18 8 3 15 10 15 16 0 6 5 16 11 23 24 28 238 357 231
357 -4 0 -2 4 4 8 9 6 116 157 147 209 5 8 -7 11 -43 9 -29 -1 -50 3 -50 9 0
6 -3 6 -8 -1 -8 -12 -102 -11 -122 1 -8 5 -11 4 -7 -2 4 -6 -9 -10 -33 -9 -22
0 -40 5 -40 9 0 5 -6 5 -12 0 -18 -11 -67 -12 -74 -1 -3 4 -11 5 -17 1 -17
-11 -77 -12 -83 -2 -3 5 -11 6 -17 2 -18 -11 -36 -12 -43 -2 -3 5 -11 6 -17 2
-17 -11 -70 -11 -84 -1 -6 5 -14 5 -16 0 -7 -10 -99 -8 -117 3 -8 5 -11 4 -7
-2 9 -14 -95 -12 -105 2 -5 6 -8 6 -8 -1 0 -14 -80 -13 -80 1 0 6 -3 6 -8 0
-9 -14 -95 -13 -104 0 -5 6 -8 6 -8 -2 0 -12 -69 -11 -89 2 -6 3 -11 2 -11 -2
0 -5 -42 -8 -92 -7 -80 2 -119 -2 -218 -21 -8 -2 -15 -4 -15 -5 0 -1 -8 -3
-17 -6 -10 -2 -24 -6 -30 -8 -7 -2 -23 -7 -35 -11 -12 -4 -25 -6 -29 -5 -4 1
-10 -2 -13 -7 -3 -4 -28 -19 -56 -32 -59 -27 -156 -95 -205 -143 -48 -47 -120
-128 -113 -128 3 0 -6 -15 -19 -32 -22 -30 -73 -129 -94 -183 -9 -25 -8 -21
-18 -70 -4 -22 -11 -44 -14 -50 -17 -27 -19 -325 -2 -325 3 0 6 -10 7 -23 3
-34 8 -51 17 -66 7 -10 5 -12 -5 -7 -8 4 -6 1 3 -7 10 -8 15 -16 12 -20 -3 -3
-1 -13 4 -24 6 -10 20 -40 32 -68 12 -27 35 -69 51 -93 16 -24 29 -45 29 -48
0 -4 51 -61 91 -103 93 -96 310 -224 362 -213 4 1 7 -2 7 -6 0 -4 8 -8 18 -9
9 -1 41 -6 71 -12 30 -6 58 -8 63 -5 4 3 8 1 8 -3 0 -5 134 -8 298 -8 356 1
386 -3 506 -59 94 -45 185 -121 247 -206 30 -42 79 -145 86 -179 2 -14 6 -27
8 -31 8 -13 18 -107 18 -165 -1 -86 -20 -168 -59 -249 -45 -94 -76 -138 -149
-208 -52 -50 -173 -116 -245 -134 -8 -2 -31 -7 -50 -12 -19 -4 -376 -8 -793
-7 l-758 0 -14 25 c-8 14 -39 77 -69 140 -29 63 -65 140 -80 171 -14 31 -26
61 -26 67 0 7 -3 12 -8 12 -4 0 -13 15 -21 33 -8 17 -41 88 -74 157 -105 222
-121 255 -122 260 -2 7 -81 172 -134 279 -22 46 -41 90 -41 98 0 7 -3 13 -7
13 -5 0 -19 27 -33 60 -14 33 -28 60 -33 60 -4 0 -6 3 -5 8 1 4 -4 19 -10 33
-13 33 -170 349 -183 369 -13 21 -33 73 -31 83 1 4 -2 7 -8 7 -5 0 -10 4 -10
9 0 5 -25 62 -56 127 -31 66 -56 121 -54 123 1 2 -3 7 -10 11 -6 4 -12 13 -14
21 -1 8 -29 70 -62 139 -79 162 -98 204 -95 209 2 2 -1 7 -6 10 -6 3 -56 105
-112 226 -57 121 -109 225 -116 231 -9 6 -67 10 -152 9 -76 -1 -145 2 -154 6
-9 5 -19 5 -23 1 -12 -11 -186 -9 -186 3 0 7 -3 7 -8 0 -8 -12 -61 -13 -78 -3
-6 4 -14 4 -18 0z m-224 -257 c15 -1 28 2 28 7 0 5 5 6 10 3 15 -9 304 -10
318 -1 7 4 12 4 12 -1 0 -4 62 -7 138 -6 l137 2 18 -30 c9 -17 14 -36 10 -41
-3 -7 -1 -8 5 -4 10 6 18 -17 10 -27 -2 -2 5 -12 15 -22 10 -9 16 -24 13 -32
-3 -8 -2 -12 3 -9 11 7 23 -22 14 -36 -4 -7 -1 -8 7 -3 10 6 12 4 7 -9 -4 -10
-3 -15 3 -11 5 3 12 -7 16 -22 4 -15 10 -30 13 -33 3 -3 16 -24 28 -46 17 -32
19 -44 10 -53 -9 -10 -8 -11 8 -5 11 4 17 3 12 -1 -4 -5 0 -19 8 -32 9 -13 12
-23 8 -23 -5 0 -3 -4 2 -8 12 -8 39 -64 37 -74 -1 -5 3 -8 8 -8 6 0 10 -9 10
-19 0 -11 5 -23 10 -26 6 -4 8 -11 5 -16 -4 -5 -1 -9 5 -9 6 0 8 -4 5 -10 -3
-5 -1 -10 5 -10 6 0 8 -4 5 -10 -3 -5 -1 -10 5 -10 6 0 8 -4 5 -10 -3 -5 -2
-10 3 -10 9 0 25 -37 23 -52 -1 -5 4 -8 10 -8 5 0 7 -4 4 -10 -3 -5 -1 -10 6
-10 7 0 9 -8 6 -21 -3 -12 -3 -18 1 -15 8 9 72 -126 65 -138 -3 -5 -1 -6 5 -2
11 6 17 -12 13 -36 0 -5 4 -8 10 -8 5 0 7 -4 4 -10 -3 -5 -1 -10 5 -10 6 0 8
-4 5 -10 -3 -5 -3 -10 2 -10 4 0 13 -11 20 -25 8 -19 8 -24 0 -19 -7 3 -4 -1
7 -10 10 -8 15 -19 11 -25 -3 -6 -3 -11 2 -11 7 0 36 -54 38 -70 1 -8 79 -164
85 -170 3 -3 6 -12 8 -20 2 -8 8 -17 13 -18 5 -2 7 -7 4 -11 -5 -9 25 -72 45
-96 7 -8 9 -15 6 -15 -8 0 21 -56 43 -82 8 -10 11 -18 7 -18 -3 0 4 -19 16
-42 12 -24 23 -45 23 -48 1 -3 16 -34 35 -70 19 -36 33 -69 32 -73 -1 -4 5
-10 13 -13 8 -3 13 -10 10 -14 -3 -5 2 -16 11 -24 8 -9 12 -16 8 -16 -5 0 -3
-5 4 -12 7 -7 12 -23 12 -36 0 -13 4 -20 10 -17 9 6 14 -10 13 -42 -1 -7 3
-11 7 -8 11 7 22 -24 13 -38 -3 -7 -3 -9 2 -5 7 7 53 -70 58 -97 1 -5 4 -12 7
-15 3 -3 10 -15 17 -27 10 -17 10 -23 0 -26 -7 -3 -4 -6 7 -6 12 -1 16 -6 12
-16 -3 -8 -2 -15 2 -15 5 0 14 -16 22 -35 8 -19 18 -35 24 -35 5 0 6 -3 3 -7
-4 -3 3 -21 14 -40 11 -18 17 -33 13 -33 -4 0 1 -10 12 -22 12 -14 14 -18 4
-13 -8 4 -4 -4 9 -18 14 -15 21 -27 17 -27 -5 0 -3 -7 4 -15 7 -8 9 -15 4 -15
-4 0 0 -6 11 -13 10 -8 15 -19 11 -25 -3 -5 -2 -12 3 -14 5 -1 11 -10 13 -18
2 -8 9 -20 16 -26 8 -5 15 -22 15 -36 1 -15 4 -25 6 -22 5 5 71 -127 71 -143
0 -7 5 -13 11 -13 5 0 7 -4 4 -10 -3 -5 -1 -10 4 -10 6 0 11 -3 10 -7 -2 -15
13 -53 21 -53 14 0 20 -61 8 -83 -6 -12 -14 -24 -17 -27 -4 -3 -20 -26 -36
-52 -17 -27 -33 -48 -37 -48 -5 0 -8 -6 -8 -13 0 -7 -9 -23 -20 -35 -11 -12
-20 -25 -20 -29 0 -5 -11 -20 -25 -35 -14 -15 -25 -31 -25 -35 0 -5 -7 -16
-15 -26 -8 -9 -15 -22 -15 -27 0 -6 -4 -10 -10 -10 -5 0 -10 -7 -10 -15 0 -8
-5 -15 -11 -15 -5 0 -8 -4 -5 -9 4 -5 3 -11 -1 -13 -12 -5 -63 -75 -63 -86 0
-6 -3 -12 -8 -14 -4 -1 -30 -36 -57 -76 -27 -41 -53 -76 -57 -78 -4 -3 -17 17
-29 43 -11 26 -38 83 -59 125 -22 43 -40 85 -42 95 -2 10 -6 20 -9 23 -10 9
-64 125 -61 133 1 4 -2 7 -6 7 -5 0 -14 18 -21 40 -6 22 -16 40 -21 40 -6 0
-10 7 -10 15 0 8 -11 36 -25 63 -39 75 -85 175 -85 184 0 5 -7 16 -15 24 -8 9
-15 24 -15 35 0 10 -4 19 -10 19 -5 0 -10 6 -10 14 0 8 -16 44 -35 80 -19 36
-32 66 -28 66 3 0 -1 8 -10 18 -8 9 -16 22 -17 27 -1 6 -11 27 -21 47 -11 21
-16 38 -12 38 5 0 3 4 -3 8 -9 6 -32 51 -65 127 -5 11 -13 27 -18 35 -5 8 -23
44 -39 80 -17 36 -53 113 -81 171 -28 59 -51 112 -51 118 0 6 -4 11 -10 11 -5
0 -10 6 -10 14 0 7 -18 48 -39 90 -22 42 -37 76 -34 76 2 0 -5 16 -17 35 -12
19 -18 35 -13 35 4 0 3 4 -3 8 -11 8 -46 77 -44 88 1 4 -2 10 -7 13 -5 3 -20
32 -33 64 -13 31 -27 57 -32 57 -4 0 -8 6 -8 14 0 8 -17 49 -38 92 -83 170
-95 197 -95 210 0 8 -2 12 -5 9 -6 -6 -152 290 -225 455 -6 14 -17 33 -25 42
-8 9 -11 21 -8 27 3 5 2 11 -3 13 -5 1 -11 10 -13 18 -2 8 -11 23 -20 34 -10
11 -18 28 -18 37 0 10 -5 19 -12 21 -6 2 -11 20 -11 39 0 18 -2 28 -5 21 -4
-12 -29 25 -37 53 -6 25 -38 89 -50 102 -8 7 -12 22 -10 33 2 11 0 18 -4 16
-4 -3 -14 13 -21 34 -7 22 -17 40 -22 40 -5 0 -6 5 -3 10 3 6 2 10 -4 10 -5 0
-8 9 -6 19 2 11 -3 22 -11 25 -9 3 -12 10 -9 16 3 5 1 10 -4 10 -6 0 -11 9
-11 20 0 11 -4 20 -10 20 -5 0 -10 4 -10 9 0 5 14 8 30 7 17 -1 35 1 42 5 7 4
17 5 22 1 6 -3 23 -6 38 -7z"/>
</g>
</svg>
